<svg width="236.932617" height="64.243652" viewBox="0 0 236.933 64.2437" fill="none" xmlns="http://www.w3.org/2000/svg" xmlns:xlink="http://www.w3.org/1999/xlink">
	<desc>
			Created with Pixso.
	</desc>
	<defs/>
	<path id="esquire" d="M171.19 5.04C171.19 7.83 168.74 10.1 165.78 10.1C162.81 10.1 160.38 7.83 160.38 5.04C160.38 2.27 162.81 0 165.78 0C168.74 0 171.19 2.27 171.19 5.04ZM188.69 50.74L178.7 50.74L178.7 14.74L188.39 14.74L188.39 21.02L188.76 21.02C190.08 16.56 193.38 14.22 197.41 14.22C198.43 14.22 199.67 14.37 200.55 14.58L200.55 23.42C199.62 23.13 197.72 22.89 196.33 22.89C191.93 22.89 188.69 25.94 188.69 30.37L188.69 50.74ZM34.17 40.42C32.77 47.11 26.76 51.44 17.85 51.44C6.76 51.44 0 44.31 0 32.9C0 21.8 6.86 14.27 17.46 14.27C26.97 14.27 34.38 20.31 34.38 32.54L34.38 35.28L9.86 35.28L9.86 35.32C9.86 40.68 13.03 43.98 18.03 43.98C21.35 43.98 23.92 42.55 24.94 39.81L34.17 40.42ZM55.52 14.27C64.61 14.27 69.96 18.36 70.85 25L61.71 25.57C61.21 23.25 59.15 21.35 55.68 21.35C52.59 21.35 50.16 22.75 50.17 24.91C50.16 26.65 51.4 27.79 54.75 28.52L61.26 29.84C68.25 31.25 71.65 34.38 71.67 39.59C71.65 46.68 64.96 51.44 55.63 51.44C46.1 51.44 40.25 47.19 39.3 40.31L49.12 39.79C49.74 42.73 52.11 44.24 55.67 44.24C59.15 44.24 61.47 42.73 61.52 40.58C61.47 38.78 60.05 37.64 56.91 37.01L50.67 35.77C43.63 34.35 40.25 30.87 40.26 25.47C40.25 18.53 46.3 14.27 55.52 14.27ZM111.73 64.24L101.77 64.24L101.77 44.97L101.46 44.97C100.08 47.96 97.05 51.32 91.25 51.32C83.03 51.32 76.63 44.82 76.63 32.79C76.63 20.41 83.32 14.27 91.21 14.27C97.24 14.27 100.12 17.85 101.46 20.78L101.88 20.78L101.88 14.74L111.73 14.74L111.73 64.24ZM236.72 40.42C235.32 47.11 229.31 51.44 220.4 51.44C209.31 51.44 202.54 44.31 202.54 32.9C202.54 21.8 209.41 14.27 220.01 14.27C229.52 14.27 236.93 20.31 236.93 32.54L236.93 35.28L212.4 35.28L212.4 35.32C212.4 40.68 215.58 43.98 220.57 43.98C223.89 43.98 226.47 42.55 227.49 39.81L236.72 40.42ZM135.94 42.76C139.51 42.76 142.82 40.23 142.8 35.41L142.8 14.74L152.79 14.74L152.79 50.74L143.2 50.74L143.2 44.19L142.82 44.19C141.21 48.42 137.32 51.2 131.91 51.2C124.66 51.2 119.74 46.08 119.71 37.65L119.71 14.74L129.7 14.74L129.7 35.88C129.72 40.12 132.17 42.76 135.94 42.76ZM170.74 50.74L160.75 50.74L160.75 14.74L170.74 14.74L170.74 50.74ZM17.62 21.72C13.19 21.72 10.08 25 9.86 29.1L24.99 29.1C24.95 24.81 21.96 21.72 17.62 21.72ZM220.17 21.72C215.74 21.72 212.63 25 212.4 29.1L227.53 29.1C227.5 24.81 224.5 21.72 220.17 21.72ZM86.83 32.74C86.83 39.02 89.51 43.37 94.4 43.37C99.21 43.37 101.98 39.15 101.98 32.74C101.98 26.31 99.25 22.22 94.4 22.22C89.46 22.22 86.83 26.5 86.83 32.74Z" fill="#256400" fill-opacity="1.000000" fill-rule="evenodd"/>
</svg>
