<svg width="111.461548" height="38.399414" viewBox="0 0 111.462 38.3994" fill="none" xmlns="http://www.w3.org/2000/svg" xmlns:xlink="http://www.w3.org/1999/xlink">
	<desc>
			Created with Pixso.
	</desc>
	<defs/>
	<path id="HUMANS OF NEW YORK" d="M73.06 13.86Q74.24 14.39 75.98 14.39Q77.6 14.39 78.78 13.93Q79.93 13.47 80.58 12.63Q80.61 12.6 80.64 12.56Q80.76 12.4 80.85 12.23Q81.29 11.44 81.29 10.41Q81.29 9.27 80.81 8.54Q80.32 7.81 79.3 7.32Q78.28 6.84 76.68 6.4Q75.36 6.02 74.54 5.67Q73.72 5.33 73.34 4.88Q73.25 4.79 73.19 4.68Q72.95 4.29 72.95 3.75Q72.95 3.11 73.26 2.67Q73.45 2.39 73.76 2.2Q74.58 1.69 75.87 1.69Q77.16 1.69 77.95 2.26Q78.55 2.67 78.77 3.24Q78.85 3.43 78.88 3.63Q78.96 3.85 79.11 3.94Q79.26 4.01 79.39 4.01L80.45 4.01Q80.65 4.01 80.75 3.91Q80.77 3.9 80.78 3.89Q80.86 3.77 80.87 3.65Q80.87 3.63 80.87 3.61Q80.85 3.01 80.53 2.38Q80.22 1.75 79.6 1.21Q78.98 0.65 78.04 0.33Q77.11 0 75.87 0Q74.34 0 73.24 0.5Q72.14 1 71.56 1.85Q71.35 2.16 71.21 2.5Q70.98 3.09 70.98 3.77Q70.98 4.91 71.45 5.65Q71.91 6.4 72.88 6.89Q73.84 7.39 75.3 7.81Q76.69 8.21 77.57 8.55Q78.46 8.9 78.89 9.33Q79 9.44 79.09 9.58Q79.32 9.94 79.32 10.45Q79.32 10.97 79.11 11.38Q78.91 11.78 78.51 12.08Q77.7 12.7 75.98 12.7Q74.86 12.7 74.15 12.39Q73.44 12.08 73.06 11.61Q72.68 11.13 72.56 10.65Q72.54 10.58 72.5 10.52Q72.46 10.44 72.39 10.38Q72.39 10.37 72.39 10.37Q72.27 10.25 72.04 10.25L71.02 10.25Q70.94 10.25 70.86 10.28Q70.78 10.31 70.7 10.39Q70.62 10.47 70.59 10.57Q70.58 10.62 70.58 10.67Q70.58 10.84 70.61 11.01Q70.73 11.77 71.25 12.47Q71.88 13.32 73.06 13.86ZM90.91 13.8Q92.14 14.39 93.86 14.39Q95.56 14.39 96.77 13.8Q97.28 13.56 97.69 13.2Q98.27 12.7 98.66 11.98Q99.34 10.75 99.4 8.9Q99.44 8.01 99.44 7.21Q99.44 6.4 99.4 5.51Q99.34 3.68 98.63 2.45Q98.23 1.72 97.63 1.22Q97.21 0.86 96.71 0.61Q95.48 0 93.86 0Q92.22 0 90.99 0.61Q90.47 0.86 90.05 1.23Q89.47 1.73 89.06 2.45Q88.38 3.68 88.3 5.51Q88.28 6.4 88.28 7.21Q88.28 8.01 88.3 8.9Q88.38 10.75 89.03 11.98Q89.43 12.71 90.01 13.21Q90.42 13.56 90.91 13.8ZM0.16 14.11Q0.28 14.19 0.46 14.19L1.47 14.19Q1.67 14.19 1.79 14.1Q1.81 14.09 1.83 14.07Q1.88 14.02 1.91 13.96Q1.96 13.86 1.96 13.74L1.96 7.99L8.84 7.99L8.84 13.74Q8.84 13.87 8.89 13.97Q8.92 14.02 8.96 14.07Q9.01 14.11 9.06 14.14Q9.16 14.19 9.3 14.19L10.32 14.19Q10.5 14.19 10.62 14.11Q10.64 14.09 10.66 14.07Q10.71 14.02 10.75 13.96Q10.8 13.86 10.8 13.74L10.8 0.67Q10.8 0.5 10.71 0.39Q10.69 0.35 10.66 0.33Q10.64 0.3 10.6 0.28Q10.49 0.2 10.32 0.2L9.3 0.2Q9.17 0.2 9.07 0.25Q9.01 0.28 8.96 0.33Q8.94 0.35 8.92 0.37Q8.84 0.49 8.84 0.67L8.84 6.2L1.96 6.2L1.96 0.67Q1.96 0.5 1.88 0.39Q1.85 0.35 1.83 0.33Q1.8 0.3 1.78 0.28Q1.66 0.2 1.47 0.2L0.46 0.2Q0.28 0.2 0.17 0.28Q0.14 0.3 0.12 0.33Q0.1 0.34 0.09 0.36Q-7.63e-6 0.48 -7.63e-6 0.67L-7.63e-6 13.74Q-7.63e-6 13.88 0.05 13.98Q0.08 14.03 0.12 14.07Q0.14 14.09 0.16 14.11ZM16.67 13.79Q17.88 14.39 19.56 14.39Q21.26 14.39 22.45 13.79Q22.94 13.55 23.34 13.2Q23.92 12.69 24.3 11.96Q24.96 10.73 24.96 8.79L24.96 0.67Q24.96 0.5 24.88 0.39Q24.86 0.35 24.83 0.33Q24.78 0.28 24.72 0.25Q24.62 0.2 24.49 0.2L23.45 0.2Q23.33 0.2 23.23 0.25Q23.17 0.28 23.12 0.33Q23.1 0.35 23.08 0.37Q23 0.49 23 0.67L23 8.83Q23 10.8 22.06 11.74Q21.87 11.94 21.64 12.09Q20.8 12.68 19.56 12.68Q18.26 12.68 17.41 12.06Q17.21 11.91 17.03 11.74Q16.12 10.8 16.12 8.83L16.12 0.67Q16.12 0.5 16.03 0.39Q16.01 0.35 15.98 0.33Q15.96 0.3 15.92 0.28Q15.81 0.2 15.64 0.2L14.62 0.2Q14.44 0.2 14.33 0.28Q14.3 0.3 14.28 0.33Q14.26 0.34 14.26 0.35Q14.16 0.47 14.16 0.67L14.16 8.79Q14.16 10.73 14.81 11.96Q15.18 12.67 15.74 13.17Q16.15 13.54 16.67 13.79ZM28.52 14.14Q28.63 14.19 28.76 14.19L29.74 14.19Q29.87 14.19 29.97 14.14Q30.02 14.11 30.06 14.07Q30.11 14.02 30.14 13.96Q30.19 13.86 30.19 13.74L30.19 3.9L33.56 10.41Q33.66 10.62 33.79 10.73Q33.93 10.83 34.2 10.83L34.82 10.83Q35.06 10.83 35.21 10.73Q35.25 10.71 35.27 10.68Q35.39 10.58 35.46 10.41L38.8 3.9L38.8 13.74Q38.8 13.87 38.85 13.97Q38.88 14.02 38.92 14.07Q38.97 14.11 39.02 14.14Q39.13 14.19 39.26 14.19L40.24 14.19Q40.42 14.19 40.54 14.11Q40.56 14.09 40.59 14.07Q40.64 14.02 40.67 13.96Q40.72 13.86 40.72 13.74L40.72 0.67Q40.72 0.5 40.64 0.39Q40.61 0.35 40.59 0.33Q40.56 0.3 40.53 0.28Q40.41 0.2 40.24 0.2L39.26 0.2Q39.02 0.2 38.91 0.31Q38.91 0.31 38.91 0.32Q38.8 0.43 38.76 0.51L34.5 8.59L30.28 0.51Q30.24 0.43 30.12 0.32L30.12 0.32Q30 0.2 29.76 0.2L28.76 0.2Q28.63 0.2 28.54 0.25Q28.48 0.28 28.43 0.33Q28.4 0.35 28.38 0.39Q28.3 0.5 28.3 0.67L28.3 13.74Q28.3 13.86 28.35 13.96Q28.38 14.02 28.43 14.07Q28.47 14.11 28.52 14.14ZM43.11 14.17Q43.17 14.19 43.24 14.19L44.26 14.19Q44.5 14.19 44.61 14.08Q44.74 13.96 44.76 13.85L45.85 11.02L52.42 11.02L53.52 13.85Q53.55 13.96 53.66 14.08Q53.77 14.19 54.02 14.19L55.03 14.19Q55.11 14.19 55.17 14.17Q55.25 14.14 55.31 14.08Q55.39 14 55.42 13.91Q55.43 13.86 55.43 13.79Q55.43 13.7 55.4 13.57L50.45 0.63Q50.38 0.43 50.23 0.32Q50.1 0.2 49.81 0.2L48.46 0.2Q48.18 0.2 48.04 0.32Q47.9 0.43 47.82 0.63L42.86 13.57Q42.84 13.7 42.84 13.79Q42.84 13.86 42.86 13.92Q42.89 14.01 42.95 14.08Q43.03 14.15 43.11 14.17ZM57.74 14.11Q57.86 14.19 58.04 14.19L59 14.19Q59.18 14.19 59.3 14.11Q59.32 14.09 59.34 14.07Q59.39 14.02 59.42 13.96Q59.47 13.86 59.47 13.74L59.47 3.81L66.1 13.92Q66.13 13.96 66.24 14.08Q66.25 14.08 66.25 14.09Q66.36 14.19 66.58 14.19L67.54 14.19Q67.66 14.19 67.75 14.14Q67.81 14.11 67.86 14.06Q67.92 14 67.95 13.92Q67.99 13.83 67.99 13.72L67.99 0.67Q67.99 0.5 67.91 0.39Q67.89 0.35 67.86 0.33Q67.84 0.3 67.8 0.28Q67.69 0.2 67.52 0.2L66.55 0.2Q66.38 0.2 66.27 0.28Q66.24 0.3 66.21 0.33Q66.2 0.34 66.19 0.35Q66.1 0.47 66.1 0.67L66.1 10.67L59.45 0.47Q59.44 0.41 59.31 0.31Q59.2 0.2 58.96 0.2L58.04 0.2Q57.86 0.2 57.75 0.28Q57.72 0.3 57.7 0.33Q57.68 0.34 57.67 0.36Q57.58 0.48 57.58 0.67L57.58 13.74Q57.58 13.88 57.63 13.98Q57.66 14.03 57.7 14.07Q57.72 14.09 57.74 14.11ZM102.52 14.11Q102.64 14.19 102.82 14.19L103.82 14.19Q103.99 14.19 104.11 14.11Q104.14 14.09 104.17 14.07Q104.22 14.02 104.25 13.96Q104.3 13.86 104.3 13.74L104.3 8.33L110.58 8.33Q110.76 8.33 110.88 8.25Q110.9 8.23 110.92 8.21Q110.97 8.16 111.01 8.1Q111.06 8 111.06 7.88L111.06 7.08Q111.06 6.9 110.98 6.79Q110.95 6.76 110.92 6.73Q110.9 6.7 110.87 6.68Q110.75 6.6 110.58 6.6L104.3 6.6L104.3 1.93L110.98 1.93Q111.18 1.93 111.3 1.84Q111.31 1.83 111.33 1.82Q111.35 1.79 111.37 1.76Q111.46 1.65 111.46 1.47L111.46 0.67Q111.46 0.5 111.38 0.39Q111.35 0.35 111.33 0.33Q111.3 0.3 111.27 0.28Q111.15 0.2 110.98 0.2L102.82 0.2Q102.64 0.2 102.53 0.28Q102.5 0.3 102.48 0.33Q102.46 0.34 102.45 0.36Q102.36 0.48 102.36 0.67L102.36 13.74Q102.36 13.88 102.42 13.98Q102.44 14.03 102.48 14.07Q102.5 14.09 102.52 14.11ZM95.78 12.21Q94.97 12.7 93.86 12.7Q92.75 12.7 91.93 12.21Q91.62 12.03 91.35 11.78Q90.38 10.85 90.29 8.79Q90.28 7.9 90.28 7.19Q90.28 6.47 90.29 5.6Q90.36 4.21 90.83 3.35Q91.2 2.66 91.78 2.27Q91.92 2.17 92.08 2.09Q92.86 1.69 93.86 1.69Q94.86 1.69 95.64 2.09Q95.79 2.17 95.93 2.27Q96.51 2.66 96.89 3.35Q97.36 4.21 97.4 5.6Q97.44 6.47 97.44 7.19Q97.44 7.9 97.4 8.79Q97.32 10.85 96.34 11.78Q96.08 12.02 95.78 12.21ZM49.14 2.19L51.84 9.29L46.44 9.29L49.14 2.19ZM71.26 37.8Q72.49 38.39 74.21 38.39Q75.91 38.39 77.12 37.8Q77.63 37.56 78.04 37.2Q78.62 36.7 79.01 35.98Q79.69 34.75 79.75 32.9Q79.79 32.01 79.79 31.21Q79.79 30.4 79.75 29.51Q79.69 27.68 78.98 26.45Q78.58 25.73 77.98 25.22Q77.56 24.86 77.06 24.61Q75.83 24 74.21 24Q72.57 24 71.34 24.61Q70.82 24.86 70.4 25.23Q69.82 25.73 69.41 26.45Q68.73 27.68 68.65 29.51Q68.63 30.4 68.63 31.21Q68.63 32.01 68.65 32.9Q68.73 34.75 69.38 35.98Q69.78 36.71 70.36 37.21Q70.77 37.56 71.26 37.8ZM10.95 38.11Q11.07 38.19 11.25 38.19L12.21 38.19Q12.39 38.19 12.51 38.11Q12.53 38.09 12.55 38.07Q12.6 38.02 12.63 37.96Q12.68 37.86 12.68 37.74L12.68 27.81L19.31 37.92Q19.34 37.96 19.45 38.08Q19.46 38.08 19.46 38.09Q19.57 38.19 19.79 38.19L20.75 38.19Q20.87 38.19 20.96 38.14Q21.02 38.11 21.07 38.06Q21.13 38 21.16 37.92Q21.2 37.83 21.2 37.72L21.2 24.67Q21.2 24.5 21.12 24.39Q21.1 24.35 21.07 24.33Q21.05 24.3 21.01 24.28Q20.9 24.2 20.73 24.2L19.76 24.2Q19.59 24.2 19.48 24.28Q19.45 24.3 19.42 24.33Q19.41 24.34 19.4 24.35Q19.31 24.47 19.31 24.67L19.31 34.67L12.66 24.47Q12.65 24.41 12.52 24.31Q12.41 24.2 12.17 24.2L11.25 24.2Q11.07 24.2 10.96 24.28Q10.93 24.3 10.91 24.33Q10.89 24.34 10.88 24.36Q10.79 24.48 10.79 24.67L10.79 37.74Q10.79 37.88 10.84 37.98Q10.87 38.03 10.91 38.07Q10.93 38.09 10.95 38.11ZM24.85 38.11Q24.97 38.19 25.15 38.19L33.57 38.19Q33.75 38.19 33.87 38.1Q33.89 38.09 33.9 38.07Q33.94 38.03 33.97 37.98Q34.03 37.88 34.03 37.74L34.03 36.95Q34.03 36.76 33.93 36.65Q33.92 36.63 33.9 36.62Q33.89 36.6 33.88 36.59Q33.76 36.5 33.57 36.5L26.61 36.5L26.61 31.95L32.97 31.95Q33.15 31.95 33.26 31.86Q33.29 31.85 33.3 31.83Q33.34 31.79 33.37 31.74Q33.43 31.64 33.43 31.5L33.43 30.75Q33.43 30.56 33.33 30.44Q33.32 30.42 33.3 30.41Q33.28 30.38 33.25 30.36Q33.14 30.27 32.97 30.27L26.61 30.27L26.61 25.89L33.41 25.89Q33.61 25.89 33.73 25.79Q33.73 25.79 33.74 25.78Q33.76 25.76 33.77 25.75Q33.86 25.63 33.86 25.44L33.86 24.67Q33.86 24.48 33.77 24.36Q33.76 24.34 33.74 24.33Q33.72 24.3 33.69 24.28Q33.58 24.2 33.41 24.2L25.15 24.2Q24.97 24.2 24.86 24.28Q24.83 24.3 24.81 24.33Q24.79 24.34 24.78 24.36Q24.69 24.48 24.69 24.67L24.69 37.74Q24.69 37.88 24.74 37.98Q24.77 38.03 24.81 38.07Q24.83 38.09 24.85 38.11ZM38.77 38.07Q38.92 38.19 39.17 38.19L39.94 38.19Q40.23 38.19 40.37 38.06Q40.53 37.92 40.61 37.7L43.06 30.07L45.55 37.7Q45.59 37.86 45.7 37.99Q45.73 38.02 45.77 38.06Q45.93 38.19 46.2 38.19L46.99 38.19Q47.22 38.19 47.37 38.08Q47.38 38.07 47.4 38.06Q47.55 37.92 47.61 37.65L50.19 24.82Q50.19 24.73 50.2 24.67Q50.21 24.62 50.21 24.6Q50.21 24.53 50.19 24.47Q50.16 24.39 50.09 24.32Q50.02 24.25 49.94 24.22Q49.88 24.2 49.81 24.2L48.77 24.2Q48.48 24.2 48.36 24.34Q48.29 24.41 48.27 24.53L46.25 34.85L44.07 27.77Q44.06 27.74 44.05 27.71Q44 27.57 43.89 27.45L43.88 27.45Q43.75 27.3 43.45 27.3L42.71 27.3Q42.45 27.3 42.3 27.43Q42.28 27.44 42.27 27.45Q42.14 27.58 42.08 27.73Q42.08 27.75 42.07 27.77L39.91 34.85L37.86 24.53Q37.84 24.4 37.77 24.33Q37.65 24.2 37.39 24.2L36.35 24.2Q36.28 24.2 36.23 24.21Q36.14 24.24 36.06 24.32Q36 24.38 35.97 24.46Q35.95 24.52 35.95 24.6L35.95 24.67Q35.95 24.73 35.97 24.82L38.55 37.65Q38.61 37.92 38.75 38.06Q38.76 38.06 38.77 38.07ZM60.8 38.14Q60.9 38.19 61.03 38.19L62.07 38.19Q62.25 38.19 62.37 38.11Q62.39 38.09 62.42 38.07Q62.47 38.02 62.5 37.96Q62.55 37.86 62.55 37.74L62.55 33.01L67.35 24.85Q67.39 24.8 67.41 24.74Q67.43 24.67 67.43 24.6Q67.43 24.53 67.4 24.47Q67.37 24.39 67.3 24.32Q67.26 24.27 67.2 24.24Q67.12 24.2 67.01 24.2L65.99 24.2Q65.84 24.2 65.73 24.26Q65.7 24.27 65.67 24.29Q65.55 24.38 65.45 24.53L61.55 31.02L57.65 24.53Q57.62 24.45 57.57 24.39Q57.52 24.33 57.45 24.29Q57.41 24.27 57.38 24.25Q57.26 24.2 57.13 24.2L56.09 24.2Q56.03 24.2 55.97 24.21Q55.88 24.24 55.8 24.32Q55.74 24.38 55.71 24.46Q55.69 24.52 55.69 24.6Q55.69 24.67 55.71 24.74L55.75 24.85L60.57 33.01L60.57 37.74Q60.57 37.86 60.62 37.96Q60.65 38.02 60.7 38.07Q60.74 38.11 60.8 38.14ZM82.87 38.11Q82.99 38.19 83.17 38.19L84.18 38.19Q84.38 38.19 84.5 38.1Q84.52 38.09 84.54 38.07Q84.59 38.02 84.62 37.96Q84.67 37.86 84.67 37.74L84.67 32.57L88.17 32.57L91.06 37.65Q91.19 37.83 91.35 38.01Q91.36 38.03 91.37 38.04Q91.53 38.19 91.85 38.19L92.81 38.19Q92.87 38.19 92.92 38.18Q93.02 38.15 93.1 38.08Q93.18 38 93.21 37.9Q93.23 37.85 93.23 37.79Q93.23 37.7 93.17 37.57L90.09 32.25Q91.09 31.96 91.78 31.33Q91.99 31.13 92.17 30.9Q92.21 30.86 92.25 30.81Q92.94 29.86 92.94 28.39Q92.94 26.81 92.18 25.81Q91.94 25.51 91.63 25.25Q90.31 24.2 88.05 24.2L83.17 24.2Q82.99 24.2 82.88 24.28Q82.85 24.3 82.83 24.33Q82.81 24.34 82.8 24.36Q82.71 24.48 82.71 24.67L82.71 37.74Q82.71 37.88 82.76 37.98Q82.79 38.03 82.83 38.07Q82.85 38.09 82.87 38.11ZM95.97 38.11Q96.09 38.19 96.27 38.19L97.27 38.19Q97.44 38.19 97.56 38.11Q97.59 38.09 97.62 38.07Q97.67 38.02 97.7 37.96Q97.75 37.86 97.75 37.74L97.75 32.23L103.47 37.85Q103.55 37.94 103.73 38.07Q103.91 38.19 104.25 38.19L105.37 38.19Q105.44 38.19 105.5 38.17Q105.58 38.14 105.64 38.08Q105.72 38 105.75 37.91Q105.77 37.86 105.77 37.79Q105.77 37.69 105.73 37.61Q105.71 37.56 105.67 37.52L99.09 30.89L105.27 24.85Q105.27 24.85 105.28 24.84Q105.35 24.74 105.35 24.6Q105.35 24.53 105.32 24.47Q105.3 24.39 105.22 24.32Q105.16 24.25 105.07 24.22Q105.01 24.2 104.95 24.2L103.87 24.2Q103.55 24.2 103.36 24.32Q103.17 24.43 103.09 24.51L97.75 29.63L97.75 24.67Q97.75 24.5 97.67 24.39Q97.64 24.35 97.62 24.33Q97.59 24.3 97.55 24.27Q97.43 24.2 97.27 24.2L96.27 24.2Q96.09 24.2 95.98 24.28Q95.95 24.3 95.93 24.33Q95.91 24.34 95.9 24.36Q95.81 24.48 95.81 24.67L95.81 37.74Q95.81 37.88 95.86 37.98Q95.89 38.03 95.93 38.07Q95.95 38.09 95.97 38.11ZM76.13 36.21Q75.32 36.7 74.21 36.7Q73.1 36.7 72.28 36.21Q71.97 36.03 71.7 35.78Q70.73 34.85 70.64 32.79Q70.62 31.9 70.62 31.19Q70.62 30.47 70.64 29.6Q70.71 28.21 71.18 27.35Q71.55 26.66 72.13 26.27Q72.27 26.17 72.43 26.09Q73.21 25.69 74.21 25.69Q75.21 25.69 75.99 26.09Q76.14 26.17 76.28 26.27Q76.86 26.66 77.24 27.35Q77.71 28.21 77.75 29.6Q77.79 30.47 77.79 31.19Q77.79 31.9 77.75 32.79Q77.67 34.85 76.69 35.78Q76.43 36.02 76.13 36.21ZM87.97 30.87L84.67 30.87L84.67 25.87L87.97 25.87Q89.49 25.87 90.21 26.51Q90.35 26.64 90.46 26.78Q90.95 27.38 90.95 28.37Q90.95 29.39 90.45 30Q90.34 30.13 90.21 30.25Q89.47 30.87 87.97 30.87Z" fill="#256400" fill-opacity="1.000000" fill-rule="evenodd"/>
</svg>
