<svg width="25.195801" height="23.962646" viewBox="0 0 25.1958 23.9626" fill="none" xmlns="http://www.w3.org/2000/svg" xmlns:xlink="http://www.w3.org/1999/xlink">
	<desc>
			Created with Pixso.
	</desc>
	<defs/>
	<path id="Star 9" d="M12.59 0L9.62 9.15L0 9.15L7.78 14.8L4.81 23.96L12.59 18.3L20.38 23.96L17.41 14.8L25.19 9.15L15.57 9.15L12.59 0Z" fill="#256400" fill-opacity="1.000000" fill-rule="nonzero"/>
	<path id="Star 9" d="M12.59 0L9.62 9.15L0 9.15L7.78 14.8L4.81 23.96L12.59 18.3L20.38 23.96L17.41 14.8L25.19 9.15L15.57 9.15L12.59 0Z" fill="#256400" fill-opacity="1.000000" fill-rule="nonzero"/>
	<path id="Star 9" d="M12.59 0L9.62 9.15L0 9.15L7.78 14.8L4.81 23.96L12.59 18.3L20.38 23.96L17.41 14.8L25.19 9.15L15.57 9.15L12.59 0Z" fill="#256400" fill-opacity="1.000000" fill-rule="nonzero"/>
	<path id="Star 9" d="M12.59 0L9.62 9.15L0 9.15L7.78 14.8L4.81 23.96L12.59 18.3L20.38 23.96L17.41 14.8L25.19 9.15L15.57 9.15L12.59 0Z" fill="#256400" fill-opacity="1.000000" fill-rule="nonzero"/>
	<path id="Star 9" d="M12.59 0L9.62 9.15L0 9.15L7.78 14.8L4.81 23.96L12.59 18.3L20.38 23.96L17.41 14.8L25.19 9.15L15.57 9.15L12.59 0Z" fill="#859D76" fill-opacity="1.000000" fill-rule="nonzero"/>
</svg>
