<svg width="180.000000" height="68.000000" viewBox="0 0 180 68" fill="none" xmlns="http://www.w3.org/2000/svg" xmlns:xlink="http://www.w3.org/1999/xlink">
	<desc>
			Created with Pixso.
	</desc>
	<defs>
		<clipPath id="clip95_424">
			<rect id="Logo" width="180.000000" height="68.000000" fill="white" fill-opacity="0"/>
		</clipPath>
	</defs>
	<g clip-path="url(#clip95_424)">
		<path id="Vector" d="M42.59 35.01C42.59 44.22 36.13 51.67 28.16 51.67C20.19 51.67 13.74 44.22 13.74 35.01C13.74 25.81 20.19 18.35 28.16 18.35C36.13 18.35 42.59 25.81 42.59 35.01Z" fill="#256300" fill-opacity="1.000000" fill-rule="nonzero"/>
		<path id="Vector" d="M28.16 51.67C36.13 51.67 42.59 44.22 42.59 35.01C42.59 25.81 36.13 18.35 28.16 18.35C20.19 18.35 13.74 25.81 13.74 35.01C13.74 44.22 20.19 51.67 28.16 51.67ZM31.72 49.1Q30.04 49.67 28.16 49.67Q26.29 49.67 24.61 49.1Q21.76 48.12 19.47 45.49Q18.17 43.99 17.33 42.26Q15.74 39.03 15.74 35.01Q15.74 31 17.33 27.77Q18.17 26.04 19.47 24.54Q21.76 21.91 24.61 20.93Q26.29 20.35 28.16 20.35Q30.04 20.35 31.72 20.93Q34.57 21.91 36.85 24.54Q38.15 26.04 39 27.77Q40.59 31 40.59 35.01Q40.59 39.03 39 42.26Q38.15 43.99 36.85 45.49Q34.57 48.12 31.72 49.1Z" fill="#FFFFFF" fill-opacity="1.000000" fill-rule="evenodd"/>
		<path id="Vector" d="M35.72 35.01C35.72 44.22 29.26 51.67 21.29 51.67C13.32 51.67 6.87 44.22 6.87 35.01C6.87 25.81 13.32 18.35 21.29 18.35C29.26 18.35 35.72 25.81 35.72 35.01Z" fill="#256300" fill-opacity="1.000000" fill-rule="nonzero"/>
		<path id="Vector" d="M21.29 51.67C29.26 51.67 35.72 44.22 35.72 35.01C35.72 25.81 29.26 18.35 21.29 18.35C13.32 18.35 6.87 25.81 6.87 35.01C6.87 44.22 13.32 51.67 21.29 51.67ZM24.85 49.1Q23.17 49.67 21.29 49.67Q19.42 49.67 17.74 49.1Q14.89 48.12 12.6 45.49Q11.3 43.99 10.46 42.26Q8.87 39.03 8.87 35.01Q8.87 31 10.46 27.77Q11.3 26.04 12.6 24.54Q14.89 21.91 17.74 20.93Q19.42 20.35 21.29 20.35Q23.17 20.35 24.85 20.93Q27.7 21.91 29.98 24.54Q31.28 26.04 32.13 27.77Q33.72 31 33.72 35.01Q33.72 39.03 32.13 42.26Q31.28 43.99 29.98 45.49Q27.7 48.12 24.85 49.1Z" fill="#FFFFFF" fill-opacity="1.000000" fill-rule="evenodd"/>
		<path id="Vector" d="M28.85 35.01C28.85 44.22 22.39 51.67 14.42 51.67C6.45 51.67 0 44.22 0 35.01C0 25.81 6.45 18.35 14.42 18.35C22.39 18.35 28.85 25.81 28.85 35.01Z" fill="#FFFFFF" fill-opacity="1.000000" fill-rule="nonzero"/>
	</g>
</svg>
