<svg width="34.076355" height="22.540039" viewBox="0 0 34.0764 22.54" fill="none" xmlns="http://www.w3.org/2000/svg" xmlns:xlink="http://www.w3.org/1999/xlink">
	<desc>
			Created with Pixso.
	</desc>
	<defs/>
	<path id="Vector" d="M34.07 11.27C34.07 17.49 28.9 22.54 22.53 22.54C16.15 22.54 10.99 17.49 10.99 11.27C10.99 5.04 16.15 0 22.53 0C28.9 0 34.07 5.04 34.07 11.27Z" fill="#FFFFFF" fill-opacity="1.000000" fill-rule="nonzero"/>
	<path id="Vector" d="M22.53 22.54C28.9 22.54 34.07 17.49 34.07 11.27C34.07 5.04 28.9 0 22.53 0C16.15 0 10.99 5.04 10.99 11.27C10.99 17.49 16.15 22.54 22.53 22.54ZM26.37 19.78Q24.61 20.54 22.53 20.54Q20.45 20.54 18.69 19.78Q17.09 19.1 15.77 17.8Q14.31 16.38 13.62 14.65Q12.99 13.08 12.99 11.27Q12.99 9.45 13.62 7.88Q14.31 6.15 15.77 4.73Q17.09 3.43 18.69 2.75Q20.45 2 22.53 2Q24.61 2 26.37 2.75Q27.96 3.43 29.29 4.73Q30.75 6.15 31.44 7.88Q32.07 9.45 32.07 11.27Q32.07 13.08 31.44 14.65Q30.75 16.38 29.29 17.8Q27.96 19.1 26.37 19.78Z" fill="#256400" fill-opacity="1.000000" fill-rule="evenodd"/>
	<path id="Vector" d="M28.58 11.27C28.58 17.49 23.41 22.54 17.03 22.54C10.66 22.54 5.49 17.49 5.49 11.27C5.49 5.04 10.66 0 17.03 0C23.41 0 28.58 5.04 28.58 11.27Z" fill="#FFFFFF" fill-opacity="1.000000" fill-rule="nonzero"/>
	<path id="Vector" d="M17.03 22.54C23.41 22.54 28.58 17.49 28.58 11.27C28.58 5.04 23.41 0 17.03 0C10.66 0 5.49 5.04 5.49 11.27C5.49 17.49 10.66 22.54 17.03 22.54ZM20.88 19.78Q19.12 20.54 17.03 20.54Q14.95 20.54 13.19 19.78Q11.6 19.1 10.27 17.8Q8.81 16.38 8.12 14.65Q7.49 13.08 7.49 11.27Q7.49 9.45 8.12 7.88Q8.81 6.15 10.27 4.73Q11.6 3.43 13.19 2.75Q14.95 2 17.03 2Q19.12 2 20.88 2.75Q22.47 3.43 23.8 4.73Q25.25 6.15 25.95 7.88Q26.58 9.45 26.58 11.27Q26.58 13.08 25.95 14.65Q25.25 16.38 23.8 17.8Q22.47 19.1 20.88 19.78Z" fill="#256400" fill-opacity="1.000000" fill-rule="evenodd"/>
	<path id="Vector" d="M23.08 11.27C23.08 17.49 17.91 22.54 11.54 22.54C5.16 22.54 0 17.49 0 11.27C0 5.04 5.16 0 11.54 0C17.91 0 23.08 5.04 23.08 11.27Z" fill="#256400" fill-opacity="1.000000" fill-rule="nonzero"/>
</svg>
