<svg width="224.000000" height="57.000000" viewBox="0 0 224 57" fill="none" xmlns="http://www.w3.org/2000/svg" xmlns:xlink="http://www.w3.org/1999/xlink">
	<desc>
			Created with Pixso.
	</desc>
	<defs>
		<clipPath id="clip95_348">
			<rect id="logo " width="224.000000" height="57.000000" fill="white" fill-opacity="0"/>
		</clipPath>
	</defs>
	<rect id="logo " width="224.000000" height="57.000000" fill="#FFFFFF" fill-opacity="0"/>
	<g clip-path="url(#clip95_348)">
		<path id="Vector" d="M122.55 33.95L122.55 32.71L139.89 32.71L139.89 33.08L139.89 33.62L139.89 33.98L135.76 33.98L135.76 56.27L134.99 56.27L134.92 55.98C134.44 53.76 132.12 53 130.94 53L130.76 53L130.5 53C128.55 53.07 126.8 53.88 125 54.72L124.79 54.81C124.61 54.89 124.43 54.96 124.26 55.03C124.08 55.1 123.91 55.18 123.73 55.25C121.81 56.16 119.75 56.96 117.25 56.96C103.85 56.96 94.05 45.54 94.05 29.44C94.05 9.7 107.16 0.14 116.69 0.14C118.79 0.14 120.15 0.54 121.99 1.12L122.77 1.34C122.94 1.4 123.13 1.46 123.32 1.52L123.32 1.52C123.73 1.66 124.17 1.81 124.65 1.96L125.38 2.14C125.9 2.25 126.56 2.36 127.33 2.39C128.92 2.43 130.76 2.03 131.53 0.21L131.64 0L132.27 0L132.45 0L132.45 19.99L132.27 19.99L131.6 19.99L131.53 19.7C128.14 6.39 123.98 1.45 116.73 1.41L116.66 1.41C110.69 1.41 108.71 5.19 107.64 7.23C104.8 12.65 104.21 25.01 104.21 28.79C104.21 39.36 105.17 43.91 106.98 48.63C108.82 53.47 112.02 55.8 116.84 55.72C121.3 55.65 127 53.76 127 45.29L127 33.95L122.55 33.95ZM223.16 36.27L223.16 35.95L224.22 35.95L224.22 55.94L184.43 55.94L184.43 54.63L189.29 54.63L189.29 2.87L183.88 2.87L179.31 2.87L179.31 41.91C179.42 48.74 174.82 57 164.77 57C149.79 57 144.67 49.29 144.67 39.33L144.67 2.87L139.52 2.87L139.52 2.14L139.52 1.59L158.84 1.59L158.84 2.14L158.84 2.87L153.87 2.87L153.87 43.87C153.87 44.31 154.21 55.14 165.1 55.54C168.08 55.65 171.36 54.49 173.68 52.31C175.59 50.52 177.8 47.11 177.91 41.55L177.91 2.87L173.64 2.87L173.64 2.14L173.64 1.59L183.88 1.59L184.98 1.59L185.35 1.59L221.98 1.59L221.98 19.92L221.1 19.92L221.02 19.63C217.62 2.6 209.73 2.76 201.65 2.92C201.34 2.93 201.04 2.93 200.74 2.94C200.15 2.98 199.19 2.98 198.6 2.98L198.6 27.55L199.01 27.55L199.05 27.55C203.5 27.55 208.91 27.55 210.09 16.9L210.12 16.57L211.01 16.57L211.01 40.02L210.12 40.02L210.09 39.69C209.23 28.76 204.18 28.81 199.71 28.85L199.62 28.86C199.52 28.86 199.41 28.86 199.3 28.86L198.57 28.86L198.57 54.67L199.01 54.67C199.17 54.67 199.36 54.67 199.57 54.67C202.69 54.71 211.31 54.81 217.3 49.47C220.95 46.23 222.9 41.8 223.16 36.27ZM65.63 0.29C54.33 0.29 41.93 11.45 41.93 28.5C41.93 45.54 54.74 56.85 65.63 56.85C76.53 56.85 89.34 45.54 89.34 28.5C89.31 11.45 76.94 0.29 65.63 0.29ZM78.81 26.39L78.81 26.75L78.81 27L78.81 27.22L78.81 27.55L78.81 27.66L78.81 27.99L78.81 28.06L78.81 28.42L78.81 28.71C78.81 31.88 78.52 44.05 75.28 50.12C73.44 53.65 69.87 55.5 65.56 55.5C61.25 55.5 57.65 53.65 55.84 50.12C52.6 44.05 52.35 31.88 52.35 28.71L52.35 28.42L52.35 28.06L52.35 27.99L52.35 27.66L52.35 27.55L52.35 27.22L52.35 27L52.35 26.75L52.35 26.39L52.35 26.24C52.46 21.37 53.08 12.25 55.84 6.9C58.05 2.47 62.54 1.52 65.56 1.52C68.62 1.52 73.07 2.47 75.28 6.9C78.04 12.25 78.63 21.37 78.78 26.24C78.81 26.28 78.81 26.35 78.81 26.39ZM36.18 1.59L46.31 1.59L46.68 1.59L46.68 2.83L42.18 2.83L41.71 2.83L25.54 56.23L25.25 56.23L4.93 2.83L4.41 2.83L-0.37 2.83L-0.37 2.1L-0.37 1.59L17.92 1.59L17.92 2.1L17.92 2.83L14.06 2.83L13.8 2.83L28.31 42.53L40.31 2.83L35.82 2.83L35.82 1.59L36.18 1.59Z" fill="#256400" fill-opacity="1.000000" fill-rule="evenodd"/>
	</g>
</svg>
